<svg width="576" height="384" viewBox="0 0 576 384" fill="none" xmlns="http://www.w3.org/2000/svg">
  <rect width="576" height="384" rx="28" fill="#F4F5F6"/>
  <path d="M116 254c31 18 79 28 151 28 45 0 90-6 134-18 33-9 66-23 101-43 16-9 25-2 27 20l1 12c1 23-8 40-26 50-57 32-127 49-212 49-82 0-156-17-221-51-18-9-26-27-24-53l1-12c2-19 10-25 28-17 16 7 30 15 40 21Z" fill="#111111"/>
  <path d="M156 223c29 0 58-4 87-12l65-19c20-6 39-4 58 6l49 25c12 6 25 8 38 6l25-4c16-2 24 4 25 19l1 5c1 11-6 20-18 24l-52 17c-28 9-57 14-89 14H220c-46 0-86-8-121-24-17-8-19-22-4-40l20-22c11-11 25-15 41-15Z" fill="#FF5A5F"/>
  <path d="M176 174c4-16 15-25 33-27l67-8c16-2 30 1 42 10l31 24c8 6 17 9 27 10l56 4c14 1 24 6 30 16 7 12 4 23-8 33l-37 30c-9 8-20 11-33 11H244c-22 0-43-4-63-12-19-8-30-20-33-36l-2-14c-1-9 1-18 5-28 5-13 10-20 25-23Z" fill="#111111" opacity=".12"/>
  <text x="288" y="88" text-anchor="middle" font-family="Arial, sans-serif" font-size="28" font-weight="700" fill="#68707B">
    Sneaker image unavailable
  </text>
</svg>
